# xmcd
#
# Track frame offsets:
# 150
# 11227
# 26367
# 39767
# 51762
# 65462
# 78804
# 90545
# 104392
# 116237
# 130742
# 145080
#
# Disc length: 2109 seconds
#
#
# Revision: 3
# Processed by: cddbd v1.5.2PL0 Copyright (c) Steve Scherf et al.
# Submitted via: FreeRIP 2.951 
#
DISCID=92083b0c
DTITLE=Nat King Cole - Love Is A Many Splendoured Thing
DYEAR=1900
DGENRE=Pop
TTITLE0=You're the cream in my coffee
TTITLE1=Embraceable you
TTITLE2=Prelude in 'C' sharp minor op 3 no 2
TTITLE3=Nature boy
TTITLE4=For all we know
TTITLE5=Gee baby, ain't I good to you
TTITLE6=Love is a many spendoured thing
TTITLE7=Get your kicks on route 66
TTITLE8=You stepped out of a dream
TTITLE9=Star dust
TTITLE10=Don't get around much anymore
TTITLE11=Coquette
EXTD=
EXTT0=
EXTT1=
EXTT2=
EXTT3=
EXTT4=
EXTT5=
EXTT6=
EXTT7=
EXTT8=
EXTT9=
EXTT10=
EXTT11=
PLAYORDER=
